<svg id="Layer_1" data-name="Layer 1" xmlns="http://www.w3.org/2000/svg" viewBox="0 0 60.48 60.48"><defs><style>.cls-1{fill:#1d1d1b;}</style></defs><title>Untitled-1</title><path class="cls-1" d="M32.4,54.42c-.12-1.8-.9-3.3-2.28-3.42a3.2,3.2,0,0,0-2,.66L18.72,58a.75.75,0,0,1-.9.12.67.67,0,0,1-.12-.9L20,52c1.08-2.46.72-4.62-2.28-4.44l-11.58.78a.65.65,0,0,1-.54-.24c-.18-.48,0-.72.18-.84L10.44,44c2.34-1.5,2.88-3.6.18-4.92L.36,34A.73.73,0,0,1,0,33.36c0-.36.18-.48.36-.48l5.7-.42c2.52-.24,4.68-1.8,3-4.32L2.64,18.78c-.24-.42-.36-.72-.24-.9a.55.55,0,0,1,.84-.12L8.46,20c2.46,1.08,4.62.78,4.44-2.16L12.12,6.42a.86.86,0,0,1,.3-.78c.42-.12.66,0,.78.24l3.24,4.62c1.62,2.4,3.84,2.82,5,.18L26.22.54a1.06,1.06,0,0,1,.9-.54.47.47,0,0,1,.48.48L28,6.12c.12,1.74.9,3.24,2.1,3.42a3.89,3.89,0,0,0,2.22-.66l9.36-6.3c.48-.24.72-.24.9-.12s.42.66.18.9l-2.34,5c-1.14,2.46-.66,4.74,2.22,4.5l11.58-.78a.64.64,0,0,1,.54.36.6.6,0,0,1-.18.78L50,16.44c-2.28,1.62-2.88,3.6-.18,5l10.26,5c.3.12.42.3.42.72a.45.45,0,0,1-.42.42l-5.7.48c-2.52.18-4.5,1.68-2.88,4.32l6.36,9.36c.24.42.3.66.18.9a.74.74,0,0,1-.9.18L52,40.44c-2.4-1.14-4.68-.6-4.44,2.22l.72,11.4a.94.94,0,0,1-.24.78.57.57,0,0,1-.84-.18L44,50c-1.68-2.46-3.84-2.82-5.1-.18L34.2,60a1.06,1.06,0,0,1-.9.48c-.3,0-.42-.18-.42-.36ZM42.6,29.76a15.44,15.44,0,0,0-12.36-6.18,15.08,15.08,0,0,0-12.3,6.24V30.9a15.1,15.1,0,0,0,12.3,6.18A15.31,15.31,0,0,0,42.6,30.9ZM20,30.36a13.32,13.32,0,0,1,10.2-4.74A13.48,13.48,0,0,1,40.5,30.3,13.6,13.6,0,0,1,30.24,35,13.2,13.2,0,0,1,20,30.36Zm6.06-.06a4.14,4.14,0,1,0,4.14-4.08A4.15,4.15,0,0,0,26.1,30.3Zm2.82.06a1.35,1.35,0,1,1,1.32,1.32A1.33,1.33,0,0,1,28.92,30.36Z"/></svg>