<?xml version="1.0" standalone="no"?>
<!DOCTYPE svg PUBLIC "-//W3C//DTD SVG 20010904//EN"
 "http://www.w3.org/TR/2001/REC-SVG-20010904/DTD/svg10.dtd">
<svg version="1.0" xmlns="http://www.w3.org/2000/svg"
 width="700.000000pt" height="700.000000pt" viewBox="0 0 700.000000 700.000000"
 preserveAspectRatio="xMidYMid meet">
<metadata>
Created by potrace 1.14, written by Peter Selinger 2001-2017
</metadata>
<g transform="translate(0.000000,700.000000) scale(0.100000,-0.100000)"
fill="#000000" stroke="none">
<path d="M3094 6990 c-19 -7 -64 -59 -64 -73 0 -3 -20 -48 -44 -99 -24 -51
-148 -317 -275 -591 -127 -274 -242 -515 -255 -535 -32 -52 -97 -107 -140
-122 -170 -56 -319 60 -576 447 -72 107 -232 321 -244 326 -22 9 -75 -12 -86
-33 -6 -11 -8 -47 -5 -82 2 -35 7 -108 10 -163 3 -55 8 -131 10 -169 3 -37 7
-105 10 -150 3 -44 7 -117 10 -161 3 -44 8 -116 10 -160 3 -44 7 -109 10 -145
30 -414 27 -491 -25 -574 -66 -107 -217 -128 -415 -56 -40 14 -383 163 -540
235 -163 73 -181 77 -210 45 -17 -18 -17 -23 -3 -57 8 -21 62 -106 119 -188
57 -83 117 -171 134 -195 16 -25 32 -47 35 -50 3 -3 23 -32 46 -65 22 -33 66
-96 96 -140 30 -44 89 -129 130 -190 41 -60 105 -153 142 -205 99 -141 130
-210 130 -290 0 -121 -74 -207 -228 -265 -96 -36 -143 -43 -431 -60 -49 -3
-117 -8 -150 -10 -33 -2 -109 -7 -170 -10 -60 -4 -114 -10 -118 -14 -5 -5 -7
-30 -5 -57 l3 -49 185 -92 c102 -50 391 -194 642 -318 498 -247 535 -270 579
-369 16 -38 20 -61 16 -98 -14 -117 -86 -204 -283 -344 -68 -49 -164 -117
-212 -151 -300 -213 -282 -199 -282 -236 0 -48 29 -71 88 -71 46 1 237 11 337
19 28 2 97 7 155 10 58 3 130 8 160 10 30 2 102 7 160 10 120 7 169 10 330 21
274 18 374 5 439 -58 77 -74 92 -185 47 -338 -14 -47 -90 -233 -170 -413 -80
-181 -146 -339 -146 -351 0 -13 9 -31 20 -41 35 -32 78 -14 259 109 864 586
965 652 1025 675 173 64 314 -17 377 -219 20 -65 26 -104 34 -230 9 -147 15
-243 20 -315 3 -38 7 -110 10 -160 3 -50 8 -98 11 -107 8 -28 53 -34 92 -12
31 17 45 41 118 199 46 99 102 220 125 270 23 49 57 121 74 160 18 38 56 119
84 179 28 59 51 109 51 111 0 4 96 210 143 305 70 143 147 204 257 205 145 0
231 -81 489 -460 102 -148 192 -280 200 -292 9 -12 28 -27 44 -32 23 -8 32 -6
55 14 26 22 27 28 26 107 -1 77 -8 208 -19 368 -3 36 -7 101 -10 145 -3 44 -7
105 -9 135 -3 30 -7 109 -11 175 -3 66 -8 138 -10 160 -2 22 -6 94 -10 160 -4
66 -8 146 -10 178 -8 124 42 222 133 265 48 22 70 26 137 26 114 -2 138 -11
540 -204 72 -34 168 -81 215 -103 89 -43 145 -52 174 -28 35 29 19 63 -142
302 -245 363 -511 758 -557 824 -57 84 -84 142 -97 215 -15 86 6 155 66 214
88 86 196 121 436 141 159 13 280 23 360 30 25 2 81 7 125 11 95 7 117 21 108
68 -3 17 -11 37 -17 45 -6 8 -191 103 -411 211 -752 371 -843 417 -888 449
-78 56 -117 125 -117 204 0 109 93 236 251 342 41 28 76 52 79 55 3 3 55 39
115 80 61 41 155 105 210 142 129 88 141 111 91 166 -21 24 -23 24 -156 17
-74 -4 -151 -9 -170 -10 -30 -2 -172 -11 -330 -20 -56 -3 -249 -16 -310 -20
-25 -2 -99 -6 -165 -10 -66 -4 -138 -9 -160 -11 -73 -6 -200 -6 -230 2 -79 19
-142 70 -171 139 -23 56 -20 163 6 248 19 61 223 525 300 683 35 71 36 83 11
116 -41 52 22 90 -1056 -640 -169 -115 -245 -152 -325 -159 -109 -10 -188 42
-243 160 -38 81 -52 156 -62 327 -3 58 -8 123 -10 145 -2 22 -7 96 -11 165 -4
69 -8 143 -10 165 -1 22 -3 55 -3 73 -2 57 -50 85 -107 62z m581 -2735 c50 -4
92 -9 95 -10 3 -2 25 -6 50 -10 136 -20 354 -96 499 -173 205 -109 413 -278
549 -447 56 -69 57 -71 56 -132 0 -62 -1 -63 -70 -145 -196 -232 -496 -437
-782 -534 -206 -70 -330 -89 -582 -89 -249 0 -377 19 -574 86 -313 105 -646
340 -803 566 -32 47 -36 60 -37 119 -2 64 -1 67 47 127 106 134 305 305 462
399 178 107 425 200 588 223 23 3 49 8 57 10 8 2 51 7 95 11 44 3 81 7 82 7 4
4 188 -1 268 -8z"/>
<path d="M3369 4036 c-2 -2 -31 -6 -64 -9 -208 -20 -453 -109 -651 -238 -128
-83 -334 -266 -334 -296 0 -13 128 -143 200 -203 359 -297 851 -410 1320 -303
277 63 541 210 771 430 l77 74 -57 57 c-52 53 -111 107 -172 157 -104 87 -325
206 -469 254 -90 30 -111 35 -170 47 -14 2 -50 9 -80 15 -52 10 -363 23 -371
15z m286 -95 c280 -100 399 -433 247 -690 -212 -359 -761 -286 -867 115 -66
249 80 506 333 584 78 24 206 20 287 -9z"/>
<path d="M3433 3633 c-89 -46 -117 -132 -71 -215 86 -152 323 -56 278 112 -24
90 -130 143 -207 103z"/>
</g>
</svg>
