<?xml version="1.0" encoding="utf-8"?>
<!-- Generator: Adobe Illustrator 21.1.0, SVG Export Plug-In . SVG Version: 6.00 Build 0)  -->
<svg version="1.1" id="Layer_1" xmlns="http://www.w3.org/2000/svg" xmlns:xlink="http://www.w3.org/1999/xlink" x="0px" y="0px"
	 viewBox="0 0 49.9 49.9" style="enable-background:new 0 0 49.9 49.9;" xml:space="preserve">
<style type="text/css">
	.st0{fill:#1D1D1B;}
	.st1{fill:none;stroke:#FFFFFF;stroke-width:3;}
	.st2{fill:#FFFFFF;}
	.st3{clip-path:url(#SVGID_4_);fill:#FFFFFF;}
	.st4{clip-path:url(#SVGID_4_);fill:none;stroke:#FFFFFF;stroke-width:2;}
	.st5{clip-path:url(#SVGID_6_);fill:#FFFFFF;}
	.st6{clip-path:url(#SVGID_6_);fill:none;stroke:#FFFFFF;stroke-width:2;}
	.st7{fill:none;stroke:#FFFFFF;stroke-width:2;}
</style>
<g>
</g>
<path class="st2" d="M24.9,26.1c0.6,0,1.1-0.5,1.1-1.1c0-0.6-0.5-1.1-1.1-1.1c-0.6,0-1.1,0.5-1.1,1.1C23.8,25.6,24.3,26.1,24.9,26.1
	 M24.9,21.6c1.9,0,3.4,1.5,3.4,3.4c0,1.9-1.5,3.4-3.4,3.4c-1.9,0-3.4-1.5-3.4-3.4C21.5,23.2,23.1,21.6,24.9,21.6 M24.9,28.9
	c4.6,0,7.5-2.8,8.5-3.9c-1-1.1-3.8-3.9-8.5-3.9c-4.6,0-7.5,2.8-8.4,3.9C17.5,26.2,20.2,28.9,24.9,28.9 M35.1,25.5
	c-0.2,0.2-3.5,5.1-10.2,5.1c-6.7,0-10-4.8-10.1-5.1v-0.9c0.1-0.2,3.5-5.1,10.1-5.1c6.7,0,10,4.9,10.2,5.1L35.1,25.5z M27.1,49.6
	c0,0.1,0.1,0.3,0.3,0.3c0.3,0,0.6-0.1,0.7-0.4l3.9-8.4c1-2.2,2.8-1.9,4.2,0.1l2.6,3.8c0.1,0.1,0.4,0.4,0.7,0.1
	c0.1-0.1,0.2-0.3,0.2-0.6l-0.6-9.4c-0.2-2.3,1.7-2.8,3.7-1.8l4.2,2c0.2,0.1,0.6,0,0.7-0.1c0.1-0.2,0.1-0.4-0.1-0.7l-5.2-7.7
	c-1.3-2.2,0.3-3.4,2.4-3.6l4.7-0.4c0.1,0,0.3-0.1,0.3-0.3c0-0.3-0.1-0.5-0.3-0.6l-8.5-4.2c-2.2-1.1-1.7-2.8,0.1-4.1l3.8-2.6
	c0.1-0.1,0.3-0.3,0.1-0.6c-0.1-0.2-0.3-0.3-0.4-0.3l-9.6,0.6c-2.4,0.2-2.8-1.7-1.8-3.7l1.9-4.2c0.2-0.2,0.1-0.6-0.1-0.7
	c-0.1-0.1-0.3-0.1-0.7,0.1l-7.7,5.2c-0.7,0.4-1.3,0.6-1.8,0.5c-1-0.1-1.6-1.4-1.7-2.8l-0.3-4.7c0-0.1-0.1-0.4-0.4-0.4
	c-0.3,0-0.5,0.1-0.7,0.4l-3.9,8.4c-1,2.2-2.8,1.8-4.2-0.1l-2.7-3.8c-0.1-0.2-0.3-0.3-0.6-0.2C10,4.8,10,5,10,5.3l0.6,9.5
	c0.1,2.4-1.6,2.7-3.7,1.8l-4.3-1.9c-0.1-0.1-0.5-0.2-0.7,0.1c-0.1,0.1,0,0.4,0.2,0.7l5.3,7.7c1.4,2.1-0.4,3.4-2.5,3.6l-4.7,0.3
	c-0.1,0-0.3,0.1-0.3,0.4s0.1,0.4,0.3,0.5l8.5,4.2c2.2,1.1,1.8,2.8-0.1,4.1L4.8,39c-0.1,0.1-0.3,0.3-0.1,0.7c0.1,0.1,0.3,0.2,0.4,0.2
	l9.6-0.6c2.5-0.1,2.8,1.6,1.9,3.7l-1.9,4.3c-0.1,0.2-0.2,0.5,0.1,0.7c0.1,0.1,0.4,0.1,0.7-0.1l7.7-5.2c0.7-0.4,1.2-0.6,1.7-0.5
	c1.1,0.1,1.8,1.3,1.9,2.8L27.1,49.6z"/>
</svg>
